<svg width="32" height="32" viewBox="0 0 32 32" fill="none" xmlns="http://www.w3.org/2000/svg">
<path d="M22.467 0H9.53297C4.27647 0 0 4.27647 0 9.53297V22.467C0 27.7235 4.27647 32 9.53297 32H22.467C27.7235 32 32 27.7235 32 22.467V9.53297C31.9999 4.27647 27.7235 0 22.467 0ZM28.7808 22.467C28.7808 25.954 25.954 28.7808 22.467 28.7808H9.53297C6.046 28.7808 3.2192 25.954 3.2192 22.467V9.53297C3.2192 6.04594 6.046 3.2192 9.53297 3.2192H22.467C25.954 3.2192 28.7808 6.04594 28.7808 9.53297V22.467Z" fill="white"/>
<path d="M16 7.74194C11.4364 7.74194 7.72363 11.4547 7.72363 16.0182C7.72363 20.5817 11.4364 24.2946 16 24.2946C20.5635 24.2946 24.2763 20.5818 24.2763 16.0182C24.2763 11.4546 20.5635 7.74194 16 7.74194ZM16 21.0754C13.207 21.0754 10.9428 18.8113 10.9428 16.0183C10.9428 13.2253 13.207 10.9611 16 10.9611C18.793 10.9611 21.0571 13.2253 21.0571 16.0183C21.0571 18.8112 18.7929 21.0754 16 21.0754Z" fill="white"/>
<path d="M24.1765 9.64385C25.2718 9.64385 26.1597 8.75595 26.1597 7.66067C26.1597 6.56539 25.2718 5.67749 24.1765 5.67749C23.0813 5.67749 22.1934 6.56539 22.1934 7.66067C22.1934 8.75595 23.0813 9.64385 24.1765 9.64385Z" fill="white"/>
</svg>
