<svg width="32" height="32" viewBox="0 0 32 32" fill="none" xmlns="http://www.w3.org/2000/svg">
<path d="M27.6878 0H4.3121C1.93064 0 0 1.93055 0 4.31206V27.6878C0 30.0693 1.93056 31.9998 4.3121 31.9998H15.8409L15.8605 20.5648H12.8897C12.5036 20.5648 12.1903 20.2526 12.1888 19.8666L12.1745 16.1806C12.173 15.7924 12.4873 15.4769 12.8755 15.4769H15.841V11.9153C15.841 7.78215 18.3653 5.53159 22.0524 5.53159H25.0779C25.465 5.53159 25.7789 5.84542 25.7789 6.23259V9.34063C25.7789 9.72764 25.4653 10.0414 25.0783 10.0416L23.2216 10.0425C21.2164 10.0425 20.8282 10.9953 20.8282 12.3936V15.477H25.2342C25.654 15.477 25.9797 15.8436 25.9303 16.2605L25.4934 19.9465C25.4516 20.2992 25.1525 20.565 24.7973 20.565H20.8478L20.8282 32H27.688C30.0694 32 32 30.0695 32 27.688V4.31206C31.9999 1.93055 30.0694 0 27.6878 0Z" fill="white"/>
</svg>
