<svg width="34" height="34" viewBox="0 0 34 34" fill="none" xmlns="http://www.w3.org/2000/svg">
<path fill-rule="evenodd" clip-rule="evenodd" d="M17 34C26.3888 34 34 26.3888 34 17C34 7.61116 26.3888 0 17 0C7.61116 0 0 7.61116 0 17C0 26.3888 7.61116 34 17 34ZM20.087 20.2303C20.7363 19.5852 21.552 19.5852 22.2055 20.2303C23.0004 21.0211 23.7953 21.8118 24.5861 22.6067C25.2478 23.2726 25.2436 24.0883 24.5777 24.7625C24.4237 24.918 24.2662 25.071 24.1087 25.2241L24.1087 25.2241L24.1087 25.2241C23.8065 25.5177 23.5041 25.8116 23.2251 26.1234C22.605 26.8185 21.8309 27.0432 20.9402 26.9933C19.6459 26.9225 18.4556 26.4938 17.3069 25.9362C14.7556 24.6959 12.5748 22.9771 10.7477 20.8046C9.39511 19.1982 8.27971 17.4461 7.54722 15.4734C7.18929 14.5203 6.93542 13.5423 7.01449 12.506C7.06444 11.8692 7.30167 11.324 7.77196 10.8787C8.07656 10.5891 8.37067 10.292 8.66508 9.99463L8.66509 9.99462L8.66509 9.99462L8.66516 9.99455L8.66522 9.99449C8.86154 9.79618 9.05798 9.59774 9.25776 9.40129C9.90702 8.76038 10.7228 8.76038 11.3762 9.39713C11.6453 9.66071 11.9107 9.92799 12.1762 10.1953C12.3089 10.3289 12.4416 10.4626 12.5748 10.5957C12.7683 10.7913 12.9619 10.9849 13.1554 11.1784C13.3489 11.3719 13.5424 11.5654 13.736 11.761C14.4185 12.4477 14.4185 13.2468 13.7401 13.9293L13.5308 14.1407L13.5307 14.1407C13.1144 14.5611 12.6993 14.9802 12.2751 15.3901C12.1461 15.5192 12.1336 15.6232 12.2002 15.7813C12.529 16.5638 12.9993 17.2588 13.5279 17.908C14.5933 19.2148 15.7961 20.376 17.232 21.2791C17.4179 21.3947 17.616 21.4921 17.8143 21.5895C17.9445 21.6535 18.0747 21.7176 18.2017 21.7868C18.364 21.8784 18.4764 21.8493 18.6096 21.7119C19.0965 21.2125 19.5918 20.7214 20.087 20.2303ZM21.4106 16.9134L22.9463 16.6512C22.7049 15.2403 22.039 13.9626 21.0277 12.9472C19.9581 11.8776 18.6055 11.2034 17.1155 10.9953L16.8991 12.5393C18.0519 12.7016 19.1007 13.2218 19.929 14.05C20.7114 14.8325 21.2233 15.823 21.4106 16.9134ZM17.3194 7C19.7958 7.34543 22.039 8.46496 23.812 10.2379C25.4934 11.9234 26.5963 14.0459 27 16.3849L25.4643 16.6471C25.1189 14.6286 24.1658 12.7932 22.7133 11.3408C21.1817 9.81338 19.2422 8.84368 17.103 8.54403L17.3194 7Z" fill="white"/>
</svg>
