<svg width="34" height="34" viewBox="0 0 34 34" fill="none" xmlns="http://www.w3.org/2000/svg">
<path d="M16.9996 0C7.61109 0 0 7.61132 0 16.9998C0 26.3881 7.61109 34 16.9996 34C26.3881 34 33.9998 26.3881 33.9998 16.9998C33.9998 7.61132 26.3881 0 16.9996 0ZM16.9999 5.97114L27.0598 12.2442H6.94004L16.9999 5.97114ZM27.1852 22.2615H27.1842C27.1842 23.2677 26.3687 24.083 25.3627 24.083H8.63722C7.63104 24.083 6.81571 23.2676 6.81571 22.2615V12.6434C6.81571 12.5369 6.82659 12.4335 6.84427 12.3318L16.4559 18.3253C16.4677 18.3326 16.4803 18.3376 16.4924 18.3444C16.5051 18.3515 16.518 18.3583 16.531 18.3647C16.5989 18.3997 16.6688 18.428 16.7403 18.4464C16.7477 18.4485 16.755 18.4494 16.7624 18.4511C16.8408 18.4696 16.9203 18.4811 16.9996 18.4811H17.0002C17.0007 18.4811 17.0013 18.4811 17.0013 18.4811C17.0806 18.4811 17.1601 18.4699 17.2385 18.4511C17.2459 18.4493 17.2532 18.4485 17.2606 18.4464C17.332 18.428 17.4017 18.3997 17.4699 18.3647C17.4829 18.3583 17.4958 18.3515 17.5085 18.3444C17.5205 18.3376 17.5332 18.3326 17.545 18.3253L27.1566 12.3318C27.1743 12.4335 27.1852 12.5367 27.1852 12.6434V22.2615Z" fill="white"/>
</svg>
