<svg width="34" height="34" viewBox="0 0 34 34" fill="none" xmlns="http://www.w3.org/2000/svg">
<path fill-rule="evenodd" clip-rule="evenodd" d="M16.9998 34C26.3886 34 33.9998 26.3888 33.9998 17C33.9998 7.61116 26.3886 0 16.9998 0C7.61092 0 -0.000244141 7.61116 -0.000244141 17C-0.000244141 26.3888 7.61092 34 16.9998 34ZM7.99976 13.6919C7.99976 8.89916 12.0371 5 16.9998 5C21.9624 5 25.9997 8.89916 25.9998 13.6919C25.9998 19.6397 17.9457 28.3716 17.6027 28.7404C17.2812 29.0862 16.7189 29.0868 16.3968 28.7404C16.0539 28.3716 7.99976 19.6397 7.99976 13.6919ZM12.4717 13.6919C12.4717 16.1032 14.5029 18.065 16.9998 18.065C19.4966 18.065 21.5278 16.1032 21.5278 13.6919C21.5278 11.2806 19.4966 9.31879 16.9998 9.31879C14.503 9.31879 12.4717 11.2805 12.4717 13.6919Z" fill="white"/>
</svg>
