<svg width="32" height="32" viewBox="0 0 32 32" fill="none" xmlns="http://www.w3.org/2000/svg">
<path d="M22.467 0H9.53297C4.27647 0 0 4.27647 0 9.53297V22.467C0 27.7235 4.27647 32 9.53297 32H22.467C27.7235 32 32 27.7235 32 22.467V9.53297C31.9999 4.27647 27.7235 0 22.467 0ZM28.7808 22.467C28.7808 25.954 25.954 28.7808 22.467 28.7808H9.53297C6.046 28.7808 3.2192 25.954 3.2192 22.467V9.53297C3.2192 6.04594 6.046 3.2192 9.53297 3.2192H22.467C25.954 3.2192 28.7808 6.04594 28.7808 9.53297V22.467Z" fill="#333333"/>
<path d="M15.9998 7.74219C11.4362 7.74219 7.72345 11.4549 7.72345 16.0185C7.72345 20.582 11.4362 24.2948 15.9998 24.2948C20.5634 24.2948 24.2761 20.5821 24.2761 16.0185C24.2761 11.4549 20.5634 7.74219 15.9998 7.74219ZM15.9998 21.0757C13.2068 21.0757 10.9426 18.8115 10.9426 16.0185C10.9426 13.2255 13.2068 10.9614 15.9998 10.9614C18.7928 10.9614 21.0569 13.2255 21.0569 16.0185C21.0569 18.8115 18.7927 21.0757 15.9998 21.0757Z" fill="#333333"/>
<path d="M24.1769 9.6441C25.2722 9.6441 26.1601 8.7562 26.1601 7.66092C26.1601 6.56563 25.2722 5.67773 24.1769 5.67773C23.0816 5.67773 22.1937 6.56563 22.1937 7.66092C22.1937 8.7562 23.0816 9.6441 24.1769 9.6441Z" fill="#333333"/>
</svg>
