<svg width="131" height="50" viewBox="0 0 131 50" fill="none" xmlns="http://www.w3.org/2000/svg">
<circle cx="25" cy="25" r="25" fill="#FFC700"/>
<path d="M63.01 19.78L64.998 24.162H65.026L67.014 19.78H69.674L66.202 26.08V30H63.752V26.08L60.294 19.78H63.01ZM69.8499 23.602C70.5125 22.9207 71.4272 22.58 72.5939 22.58C73.7605 22.58 74.6705 22.9207 75.3239 23.602C75.9865 24.274 76.3179 25.1933 76.3179 26.36C76.3179 27.5267 75.9865 28.4507 75.3239 29.132C74.6705 29.804 73.7605 30.14 72.5939 30.14C71.4272 30.14 70.5125 29.804 69.8499 29.132C69.1872 28.4507 68.8559 27.5267 68.8559 26.36C68.8559 25.1933 69.1872 24.274 69.8499 23.602ZM72.5939 28.502C73.6019 28.502 74.1059 27.788 74.1059 26.36C74.1059 24.932 73.6019 24.218 72.5939 24.218C71.5765 24.218 71.0679 24.932 71.0679 26.36C71.0679 27.788 71.5765 28.502 72.5939 28.502ZM79.814 22.72V26.92C79.814 27.4987 79.884 27.8907 80.024 28.096C80.164 28.292 80.4067 28.39 80.752 28.39C81.1067 28.39 81.424 28.208 81.704 27.844C81.984 27.4707 82.124 27.0367 82.124 26.542V22.72H84.364V30H82.292L82.25 28.992H82.222C81.9514 29.3467 81.6154 29.6267 81.214 29.832C80.8127 30.0373 80.402 30.14 79.982 30.14C79.1514 30.14 78.5447 29.916 78.162 29.468C77.7887 29.0107 77.602 28.2407 77.602 27.158V22.72H79.814ZM86.217 22.72H88.345L88.359 24.12H88.387C89.199 23.0933 90.3096 22.58 91.719 22.58V24.372C90.6736 24.372 89.8756 24.596 89.325 25.044C88.7743 25.492 88.499 26.1033 88.499 26.878V30H86.217V22.72ZM100.223 19.78V28.026H104.535V30H97.773V19.78H100.223ZM106.408 23.602C107.071 22.9207 107.986 22.58 109.152 22.58C110.319 22.58 111.229 22.9207 111.882 23.602C112.545 24.274 112.876 25.1933 112.876 26.36C112.876 27.5267 112.545 28.4507 111.882 29.132C111.229 29.804 110.319 30.14 109.152 30.14C107.986 30.14 107.071 29.804 106.408 29.132C105.746 28.4507 105.414 27.5267 105.414 26.36C105.414 25.1933 105.746 24.274 106.408 23.602ZM109.152 28.502C110.16 28.502 110.664 27.788 110.664 26.36C110.664 24.932 110.16 24.218 109.152 24.218C108.135 24.218 107.626 24.932 107.626 26.36C107.626 27.788 108.135 28.502 109.152 28.502ZM116.817 22.58C117.704 22.58 118.441 22.9627 119.029 23.728H119.057L119.099 22.72H121.185V29.202C121.185 30.5367 120.84 31.54 120.149 32.212C119.459 32.884 118.441 33.22 117.097 33.22C116.239 33.22 115.422 33.08 114.647 32.8L115.025 31.176C115.679 31.4467 116.337 31.582 116.999 31.582C117.709 31.582 118.217 31.4047 118.525 31.05C118.833 30.7047 118.987 30.098 118.987 29.23V28.838H118.973C118.441 29.5193 117.723 29.86 116.817 29.86C115.996 29.86 115.31 29.5333 114.759 28.88C114.218 28.2267 113.947 27.34 113.947 26.22C113.947 25.0627 114.204 24.1667 114.717 23.532C115.24 22.8973 115.94 22.58 116.817 22.58ZM116.089 26.22C116.089 26.836 116.215 27.3167 116.467 27.662C116.729 28.0073 117.069 28.18 117.489 28.18C117.928 28.18 118.278 28.0167 118.539 27.69C118.81 27.3633 118.945 26.8967 118.945 26.29V26.15C118.945 25.5527 118.81 25.0907 118.539 24.764C118.278 24.428 117.928 24.26 117.489 24.26C117.051 24.26 116.705 24.428 116.453 24.764C116.211 25.0907 116.089 25.576 116.089 26.22ZM123.539 23.602C124.202 22.9207 125.117 22.58 126.283 22.58C127.45 22.58 128.36 22.9207 129.013 23.602C129.676 24.274 130.007 25.1933 130.007 26.36C130.007 27.5267 129.676 28.4507 129.013 29.132C128.36 29.804 127.45 30.14 126.283 30.14C125.117 30.14 124.202 29.804 123.539 29.132C122.877 28.4507 122.545 27.5267 122.545 26.36C122.545 25.1933 122.877 24.274 123.539 23.602ZM126.283 28.502C127.291 28.502 127.795 27.788 127.795 26.36C127.795 24.932 127.291 24.218 126.283 24.218C125.266 24.218 124.757 24.932 124.757 26.36C124.757 27.788 125.266 28.502 126.283 28.502Z" fill="#FFC700"/>
</svg>
