<svg width="50" height="49" viewBox="0 0 50 49" fill="none" xmlns="http://www.w3.org/2000/svg">
<path d="M25 0C11.2 0 0 10.976 0 24.5C0 38.024 11.2 49 25 49C38.8 49 50 38.024 50 24.5C50 10.976 38.8 0 25 0ZM25 7.35C29.15 7.35 32.5 10.633 32.5 14.7C32.5 18.767 29.15 22.05 25 22.05C20.85 22.05 17.5 18.767 17.5 14.7C17.5 10.633 20.85 7.35 25 7.35ZM25 42.14C18.75 42.14 13.225 39.004 10 34.251C10.075 29.3755 20 26.705 25 26.705C29.975 26.705 39.925 29.3755 40 34.251C36.775 39.004 31.25 42.14 25 42.14Z" fill="#FFC700"/>
</svg>
