<svg width="50" height="50" viewBox="0 0 50 50" fill="none" xmlns="http://www.w3.org/2000/svg">
<path d="M25 0C11.1944 0 0 11.1944 0 25C0 38.8056 11.1944 50 25 50C27.3056 50 29.1667 48.1389 29.1667 45.8333C29.1667 44.75 28.75 43.7778 28.0833 43.0278C27.4444 42.3056 27.0278 41.3333 27.0278 40.2778C27.0278 37.9722 28.8889 36.1111 31.1944 36.1111H36.1111C43.7778 36.1111 50 29.8889 50 22.2222C50 9.94444 38.8056 0 25 0ZM9.72222 25C7.41667 25 5.55556 23.1389 5.55556 20.8333C5.55556 18.5278 7.41667 16.6667 9.72222 16.6667C12.0278 16.6667 13.8889 18.5278 13.8889 20.8333C13.8889 23.1389 12.0278 25 9.72222 25ZM18.0556 13.8889C15.75 13.8889 13.8889 12.0278 13.8889 9.72222C13.8889 7.41667 15.75 5.55556 18.0556 5.55556C20.3611 5.55556 22.2222 7.41667 22.2222 9.72222C22.2222 12.0278 20.3611 13.8889 18.0556 13.8889ZM31.9444 13.8889C29.6389 13.8889 27.7778 12.0278 27.7778 9.72222C27.7778 7.41667 29.6389 5.55556 31.9444 5.55556C34.25 5.55556 36.1111 7.41667 36.1111 9.72222C36.1111 12.0278 34.25 13.8889 31.9444 13.8889ZM40.2778 25C37.9722 25 36.1111 23.1389 36.1111 20.8333C36.1111 18.5278 37.9722 16.6667 40.2778 16.6667C42.5833 16.6667 44.4444 18.5278 44.4444 20.8333C44.4444 23.1389 42.5833 25 40.2778 25Z" fill="#FFC700"/>
</svg>
