<svg width="227" height="94" viewBox="0 0 227 94" fill="none" xmlns="http://www.w3.org/2000/svg">
<circle cx="47" cy="47" r="47" fill="#FFC700"/>
<path d="M113.464 38.48L117.4 46.328H117.448L121.384 38.48H125.176L119.128 49.04V56H115.624V49.04L109.576 38.48H113.464ZM125.581 45.032C126.701 43.864 128.213 43.28 130.117 43.28C132.021 43.28 133.533 43.864 134.653 45.032C135.773 46.2 136.333 47.776 136.333 49.76C136.333 51.744 135.773 53.32 134.653 54.488C133.533 55.656 132.021 56.24 130.117 56.24C128.213 56.24 126.701 55.656 125.581 54.488C124.477 53.32 123.925 51.744 123.925 49.76C123.925 47.776 124.477 46.2 125.581 45.032ZM130.117 53.864C131.093 53.864 131.853 53.52 132.397 52.832C132.941 52.128 133.213 51.104 133.213 49.76C133.213 48.416 132.941 47.4 132.397 46.712C131.853 46.008 131.093 45.656 130.117 45.656C129.157 45.656 128.405 46.008 127.861 46.712C127.317 47.4 127.045 48.416 127.045 49.76C127.045 51.104 127.317 52.128 127.861 52.832C128.405 53.52 129.157 53.864 130.117 53.864ZM141.756 43.52V50.96C141.756 52.032 141.9 52.768 142.188 53.168C142.492 53.552 143.004 53.744 143.724 53.744C144.428 53.744 145.068 53.392 145.644 52.688C146.236 51.968 146.532 51.128 146.532 50.168V43.52H149.652V56H146.724L146.652 54.248H146.604C146.124 54.872 145.532 55.36 144.828 55.712C144.124 56.064 143.396 56.24 142.644 56.24C141.284 56.24 140.284 55.856 139.644 55.088C139.004 54.304 138.684 53.032 138.684 51.272V43.52H141.756ZM152.961 43.52H155.937L155.985 45.92H156.033C157.457 44.16 159.369 43.28 161.769 43.28V45.824C159.993 45.824 158.609 46.256 157.617 47.12C156.641 47.968 156.153 49.112 156.153 50.552V56H152.961V43.52ZM175.618 38.48V53.216H183.346V56H172.138V38.48H175.618ZM186.636 45.032C187.756 43.864 189.268 43.28 191.172 43.28C193.076 43.28 194.588 43.864 195.708 45.032C196.828 46.2 197.388 47.776 197.388 49.76C197.388 51.744 196.828 53.32 195.708 54.488C194.588 55.656 193.076 56.24 191.172 56.24C189.268 56.24 187.756 55.656 186.636 54.488C185.532 53.32 184.98 51.744 184.98 49.76C184.98 47.776 185.532 46.2 186.636 45.032ZM191.172 53.864C192.148 53.864 192.908 53.52 193.452 52.832C193.996 52.128 194.268 51.104 194.268 49.76C194.268 48.416 193.996 47.4 193.452 46.712C192.908 46.008 192.148 45.656 191.172 45.656C190.212 45.656 189.46 46.008 188.916 46.712C188.372 47.4 188.1 48.416 188.1 49.76C188.1 51.104 188.372 52.128 188.916 52.832C189.46 53.52 190.212 53.864 191.172 53.864ZM204.294 43.28C205.894 43.28 207.19 43.944 208.182 45.272H208.23L208.302 43.52H211.206V54.728C211.206 59.256 209.022 61.52 204.654 61.52C203.214 61.52 201.854 61.28 200.574 60.8L201.126 58.448C202.278 58.928 203.43 59.168 204.582 59.168C205.83 59.168 206.734 58.84 207.294 58.184C207.854 57.528 208.134 56.4 208.134 54.8V53.912H208.086C207.174 55.144 205.91 55.76 204.294 55.76C202.886 55.76 201.71 55.2 200.766 54.08C199.838 52.944 199.374 51.424 199.374 49.52C199.374 47.504 199.806 45.96 200.67 44.888C201.55 43.816 202.758 43.28 204.294 43.28ZM202.374 49.52C202.374 50.72 202.63 51.664 203.142 52.352C203.67 53.024 204.35 53.36 205.182 53.36C206.062 53.36 206.766 53.032 207.294 52.376C207.822 51.72 208.086 50.808 208.086 49.64V49.4C208.086 48.232 207.822 47.32 207.294 46.664C206.766 46.008 206.062 45.68 205.182 45.68C204.302 45.68 203.614 46.008 203.118 46.664C202.622 47.32 202.374 48.272 202.374 49.52ZM215.324 45.032C216.444 43.864 217.956 43.28 219.86 43.28C221.764 43.28 223.276 43.864 224.396 45.032C225.516 46.2 226.076 47.776 226.076 49.76C226.076 51.744 225.516 53.32 224.396 54.488C223.276 55.656 221.764 56.24 219.86 56.24C217.956 56.24 216.444 55.656 215.324 54.488C214.22 53.32 213.668 51.744 213.668 49.76C213.668 47.776 214.22 46.2 215.324 45.032ZM219.86 53.864C220.836 53.864 221.596 53.52 222.14 52.832C222.684 52.128 222.956 51.104 222.956 49.76C222.956 48.416 222.684 47.4 222.14 46.712C221.596 46.008 220.836 45.656 219.86 45.656C218.9 45.656 218.148 46.008 217.604 46.712C217.06 47.4 216.788 48.416 216.788 49.76C216.788 51.104 217.06 52.128 217.604 52.832C218.148 53.52 218.9 53.864 219.86 53.864Z" fill="#FFC700"/>
</svg>
